<mxfile host="Electron" agent="Mozilla/5.0 (Macintosh; Intel Mac OS X 10_15_7) AppleWebKit/537.36 (KHTML, like Gecko) draw.io/26.0.16 Chrome/132.0.6834.196 Electron/34.2.0 Safari/537.36" version="26.0.16">
  <diagram name="Page-1" id="fC8uANzK3IzWBaoVTia8">
    <mxGraphModel dx="377" dy="845" grid="1" gridSize="10" guides="1" tooltips="1" connect="1" arrows="1" fold="1" page="1" pageScale="1" pageWidth="827" pageHeight="1169" math="0" shadow="0">
      <root>
        <mxCell id="0" />
        <mxCell id="1" parent="0" />
        <mxCell id="ugGi5KEEK_lPGR_BiLdL-4" value="Implements" style="edgeStyle=orthogonalEdgeStyle;rounded=0;orthogonalLoop=1;jettySize=auto;html=1;entryX=0.5;entryY=1;entryDx=0;entryDy=0;dashed=1;dashPattern=8 8;jumpSize=6;" edge="1" parent="1" source="ugGi5KEEK_lPGR_BiLdL-1" target="ugGi5KEEK_lPGR_BiLdL-2">
          <mxGeometry relative="1" as="geometry" />
        </mxCell>
        <mxCell id="ugGi5KEEK_lPGR_BiLdL-1" value="&lt;div&gt;«class»&lt;br&gt;&lt;/div&gt;&lt;b&gt;CloudKitRepository&lt;/b&gt;&lt;div&gt;&lt;br&gt;&lt;/div&gt;&lt;div&gt;Persists films to iCloud.&lt;/div&gt;" style="rounded=0;whiteSpace=wrap;html=1;sketch=1;curveFitting=1;jiggle=2;fillColor=#dae8fc;strokeColor=#6c8ebf;" vertex="1" parent="1">
          <mxGeometry x="157.5" y="200" width="145" height="130" as="geometry" />
        </mxCell>
        <mxCell id="ugGi5KEEK_lPGR_BiLdL-2" value="«protocol»&lt;br&gt;&lt;b&gt;FilmRepository&lt;/b&gt;" style="html=1;whiteSpace=wrap;sketch=1;curveFitting=1;jiggle=2;fillColor=#ffe6cc;strokeColor=#d79b00;" vertex="1" parent="1">
          <mxGeometry x="157.5" y="90" width="142.5" height="50" as="geometry" />
        </mxCell>
        <mxCell id="ugGi5KEEK_lPGR_BiLdL-7" value="Contains instance" style="edgeStyle=orthogonalEdgeStyle;rounded=0;orthogonalLoop=1;jettySize=auto;html=1;entryX=1;entryY=0.5;entryDx=0;entryDy=0;" edge="1" parent="1" source="ugGi5KEEK_lPGR_BiLdL-5" target="ugGi5KEEK_lPGR_BiLdL-1">
          <mxGeometry relative="1" as="geometry" />
        </mxCell>
        <mxCell id="ugGi5KEEK_lPGR_BiLdL-5" value="&lt;div&gt;«class»&lt;br&gt;&lt;/div&gt;&lt;b&gt;FilmStore&lt;/b&gt;&lt;div&gt;&lt;br&gt;&lt;/div&gt;&lt;div&gt;Manages film collection in app.&amp;nbsp;&lt;/div&gt;" style="rounded=0;whiteSpace=wrap;html=1;sketch=1;curveFitting=1;jiggle=2;fillColor=#dae8fc;strokeColor=#6c8ebf;" vertex="1" parent="1">
          <mxGeometry x="440" y="200" width="145" height="130" as="geometry" />
        </mxCell>
      </root>
    </mxGraphModel>
  </diagram>
</mxfile>
